<svg width="28" height="20" viewBox="0 0 28 20" fill="none" xmlns="http://www.w3.org/2000/svg">
<path d="M22.019 2.51623L14.6199 12.5446L14.2042 12.1758L15.0295 11.0573L18.9809 5.70172C19.7728 4.6284 19.6569 3.06147 18.6411 2.1398C17.5309 1.13255 15.876 1.35459 15.019 2.51618L16.226 3.40674L15.019 2.51618L11.0789 7.8563L10.2816 8.93701L10.7669 9.38551C9.77198 9.05141 8.64927 9.40493 8.00276 10.3011C7.52342 10.9655 7.38761 11.8139 7.59325 12.5807L7.56997 12.6122L5.55921 10.9399C4.39911 9.97505 2.75911 10.2894 1.95755 11.4746C1.21416 12.5737 1.37943 14.1379 2.4409 15.0207L5.67395 17.7096L6.57184 16.63L5.67396 17.7096C7.22377 18.9986 9.42001 18.6601 10.588 17.0771L10.5881 17.077L10.5967 17.0653L11.1493 16.3162L12.6076 17.6099C14.1489 18.9773 16.4107 18.6728 17.6073 17.051L25.9809 5.70177C26.7729 4.62845 26.657 3.06151 25.6411 2.13985L24.6332 3.25075L25.6411 2.13985C24.531 1.1326 22.876 1.35464 22.019 2.51623Z" fill="#FFABAB" stroke="#E73E51" stroke-width="3" stroke-linecap="round"/>
</svg>
