<svg width="61" height="41" viewBox="0 0 61 41" fill="none" xmlns="http://www.w3.org/2000/svg">
<path d="M29.0381 22.0185L30.2685 23.1555L31.2632 21.8074L41.1417 8.41846C42.4582 6.63414 42.2478 4.01924 40.5908 2.51584C38.8395 0.926865 36.2396 1.2537 34.8579 3.1263L36.065 4.01686L34.8579 3.1263L25.0079 16.4766L24.2106 17.5573L25.1969 18.4688L29.0381 22.0185ZM20.1812 36.8275L20.9785 35.7468L19.9922 34.8353L16.151 31.2856L14.9205 30.1485L14.8196 30.2853L7.95927 24.5796C6.13644 23.0636 3.55625 23.5269 2.25763 25.447C1.0172 27.2811 1.31678 29.8878 3.04098 31.3218L11.1236 38.0441C13.9595 40.4027 17.9735 39.8196 20.1595 36.8568L20.1812 36.8275ZM58.6418 8.41858C59.9583 6.63427 59.7479 4.01937 58.091 2.51597C56.3396 0.926991 53.7397 1.25383 52.358 3.12642L32.3986 30.1786L23.0574 21.8917C21.2872 20.3212 18.6917 20.6838 17.3316 22.5691C16.0348 24.3667 16.2684 26.9798 17.9431 28.4654L28.5121 37.8417C31.3372 40.3479 35.4702 39.8244 37.7078 36.7916L58.6418 8.41858Z" stroke="#A6BA7D" stroke-width="3" stroke-linecap="round"/>
</svg>
