<svg width="24" height="23" viewBox="0 0 24 23" fill="none" xmlns="http://www.w3.org/2000/svg">
<path d="M9.32314 8.88227L11.8474 13.0894C11.9156 13.203 11.9496 13.2598 12 13.2598C12.0504 13.2598 12.0844 13.203 12.1526 13.0894L14.6769 8.88227C14.998 8.3471 15.1585 8.07951 15.1585 7.78383C15.1585 7.48815 14.998 7.22056 14.6769 6.68538L12 2.22395L9.32314 6.68538C9.00203 7.22056 8.84148 7.48815 8.84148 7.78383C8.84148 8.07951 9.00203 8.3471 9.32314 8.88227Z" fill="#CDE58F"/>
<path d="M13.9693 12.7957L11.5879 17.0854C11.5237 17.2012 11.4915 17.2591 11.5167 17.3027C11.5419 17.3463 11.6081 17.3474 11.7405 17.3497L16.6462 17.4322C17.2702 17.4427 17.5822 17.4479 17.8383 17.3001C18.0943 17.1523 18.2458 16.8794 18.5487 16.3337L21.074 11.7848L15.8719 11.6973C15.2478 11.6868 14.9358 11.6815 14.6797 11.8294C14.4237 11.9772 14.2722 12.2501 13.9693 12.7957Z" fill="#CDE58F"/>
<path d="M10.0307 12.7957L12.4121 17.0854C12.4763 17.2012 12.5085 17.2591 12.4833 17.3027C12.4581 17.3463 12.3919 17.3474 12.2595 17.3497L7.35385 17.4322C6.72982 17.4427 6.4178 17.4479 6.16174 17.3001C5.90567 17.1523 5.75421 16.8794 5.45128 16.3337L2.926 11.7848L8.12814 11.6973C8.75217 11.6868 9.06419 11.6815 9.32025 11.8294C9.57632 11.9772 9.72778 12.2501 10.0307 12.7957Z" fill="#CDE58F"/>
<path d="M12 2.22395L9.32314 6.68538C9.00203 7.22056 8.84148 7.48815 8.84148 7.78383C8.84148 8.07951 9.00203 8.3471 9.32314 8.88227L11.8474 13.0894C11.9156 13.203 11.9496 13.2598 12 13.2598C12.0504 13.2598 12.0844 13.203 12.1526 13.0894L14.6769 8.88227C14.998 8.3471 15.1585 8.07951 15.1585 7.78383C15.1585 7.48815 14.998 7.22056 14.6769 6.68538L12 2.22395ZM12 2.22395V0M21.074 11.7848L15.8719 11.6973C15.2478 11.6868 14.9358 11.6815 14.6797 11.8294C14.4237 11.9772 14.2722 12.2501 13.9693 12.7957L11.5879 17.0854C11.5237 17.2012 11.4915 17.2591 11.5167 17.3027C11.5419 17.3463 11.6081 17.3474 11.7405 17.3497L16.6462 17.4322C17.2702 17.4427 17.5822 17.4479 17.8383 17.3001C18.0943 17.1523 18.2458 16.8794 18.5487 16.3337L21.074 11.7848ZM21.074 11.7848L23 10.6728M2.926 11.7848L8.12814 11.6973C8.75217 11.6868 9.06419 11.6815 9.32025 11.8294C9.57632 11.9772 9.72778 12.2501 10.0307 12.7957L12.4121 17.0854C12.4763 17.2012 12.5085 17.2591 12.4833 17.3027C12.4581 17.3463 12.3919 17.3474 12.2595 17.3497L7.35385 17.4322C6.72982 17.4427 6.4178 17.4479 6.16173 17.3001C5.90567 17.1523 5.75421 16.8794 5.45128 16.3337L2.926 11.7848ZM2.926 11.7848L1 10.6728M12 14.4557V22.7955" stroke="#3F5701" stroke-width="3"/>
</svg>
