<svg width="40" height="40" viewBox="0 0 40 40" fill="none" xmlns="http://www.w3.org/2000/svg">
<g opacity="0.5">
<rect x="1" y="1" width="38" height="38" rx="19" fill="#D2E4B2"/>
<rect x="1" y="1" width="38" height="38" rx="19" stroke="#3F5701" stroke-width="2"/>
<path d="M22.0353 10.8899L11.8182 21.1188C11.6302 21.3071 11.5362 21.4012 11.4745 21.516C11.4129 21.6308 11.3871 21.7598 11.3356 22.018L10.0562 28.4221C9.99722 28.7175 9.96772 28.8652 10.0541 28.9487C10.1404 29.0322 10.2913 29.002 10.5931 28.9416L16.9481 27.6691C17.2191 27.6148 17.3546 27.5877 17.4742 27.5239C17.5937 27.4601 17.6903 27.3634 17.8835 27.17L28.0901 16.9517L22.0353 10.8899Z" fill="white"/>
<path d="M24.5194 9.91845L12.5431 21.9085C12.3708 22.0811 12.2846 22.1673 12.2255 22.2715C12.1663 22.3757 12.1371 22.4928 12.0786 22.727L10.862 27.5992C10.7819 27.9199 10.7418 28.0803 10.8333 28.1686C10.9247 28.2569 11.0884 28.2159 11.4159 28.1339L16.2439 26.9256C16.4891 26.8642 16.6117 26.8335 16.7198 26.7724C16.828 26.7113 16.9164 26.6228 17.0931 26.4459L29.1231 14.402C29.7077 13.8168 30 13.5241 30 13.1631C30 12.802 29.7077 12.5094 29.1231 11.9241L27.1197 9.91845C26.5081 9.30615 26.2023 9 25.8195 9C25.4368 9 25.131 9.30615 24.5194 9.91845Z" fill="white"/>
<path d="M22.0353 10.8899L11.8182 21.1188C11.6302 21.3071 11.5362 21.4012 11.4745 21.516C11.4129 21.6308 11.3871 21.7598 11.3356 22.018L10.0562 28.4221C9.99722 28.7175 9.96772 28.8652 10.0541 28.9487C10.1404 29.0322 10.2913 29.002 10.5931 28.9416L16.9481 27.6691C17.2191 27.6148 17.3546 27.5877 17.4742 27.5239C17.5937 27.4601 17.6903 27.3634 17.8835 27.17L28.0901 16.9517L22.0353 10.8899Z" stroke="#3F5701" stroke-width="1.2"/>
<path d="M24.5194 9.91845L12.5431 21.9085C12.3708 22.0811 12.2846 22.1673 12.2255 22.2715C12.1663 22.3757 12.1371 22.4928 12.0786 22.727L10.862 27.5992C10.7819 27.9199 10.7418 28.0803 10.8333 28.1686C10.9247 28.2569 11.0884 28.2159 11.4159 28.1339L16.2439 26.9256C16.4891 26.8642 16.6117 26.8335 16.7198 26.7724C16.828 26.7113 16.9164 26.6228 17.0931 26.4459L29.1231 14.402C29.7077 13.8168 30 13.5241 30 13.1631C30 12.802 29.7077 12.5094 29.1231 11.9241L27.1197 9.91845C26.5081 9.30615 26.2023 9 25.8195 9C25.4368 9 25.131 9.30615 24.5194 9.91845Z" stroke="#3F5701" stroke-width="1.2"/>
</g>
</svg>
