<svg width="59" height="39" viewBox="0 0 59 39" fill="none" xmlns="http://www.w3.org/2000/svg">
<path d="M42.0424 19.5C42.0424 25.9433 36.427 31.1667 29.5 31.1667C22.573 31.1667 16.9576 25.9433 16.9576 19.5C16.9576 13.0567 22.573 7.83333 29.5 7.83333C36.427 7.83333 42.0424 13.0567 42.0424 19.5Z" stroke="#3F5701" stroke-width="4"/>
<path d="M55.1743 16.3917C56.3914 17.7662 57 18.4535 57 19.5C57 20.5465 56.3914 21.2338 55.1743 22.6083C50.7215 27.6371 40.9002 37 29.5 37C18.0998 37 8.2785 27.6371 3.82568 22.6083C2.60856 21.2338 2 20.5465 2 19.5C2 18.4535 2.60856 17.7662 3.82568 16.3917C8.2785 11.3629 18.0998 2 29.5 2C40.9002 2 50.7215 11.3629 55.1743 16.3917Z" stroke="#3F5701" stroke-width="4"/>
</svg>
