<svg width="43" height="54" viewBox="0 0 43 54" fill="none" xmlns="http://www.w3.org/2000/svg">
<path d="M21.4444 27L38.4594 38.5816C39.9793 39.6162 40.8889 41.3356 40.8889 43.1742V50.6111C40.8889 51.3782 40.2671 52 39.5 52H3.38889C2.62183 52 2 51.3782 2 50.6111V43.1742C2 41.3356 2.90961 39.6162 4.4295 38.5816L21.4444 27ZM21.4444 27L38.4594 15.4184C39.9793 14.3839 40.8889 12.6644 40.8889 10.8258V3.38889C40.8889 2.62183 40.2671 2 39.5 2H3.38889C2.62183 2 2 2.62183 2 3.38889V10.8258C2 12.6644 2.90962 14.3839 4.4295 15.4184L21.4444 27ZM21.4444 27L21.4444 43.6667M29.7778 51.5833V49.7975C29.7778 49.4292 29.6314 49.0759 29.371 48.8154L23.0158 42.4602C22.148 41.5924 20.7409 41.5924 19.8731 42.4602L13.5179 48.8154C13.2574 49.0759 13.1111 49.4292 13.1111 49.7975V51.5833C13.1111 51.8135 13.2977 52 13.5278 52H29.3611C29.5912 52 29.7778 51.8135 29.7778 51.5833ZM35.3333 15.8889L21.4444 24.2222L7.55556 15.8889H35.3333Z" stroke="#3F5701"  stroke-width="3" stroke-linecap="round" stroke-linejoin="round"/>
</svg>
