<svg width="18" height="23" viewBox="0 0 18 23" fill="none" xmlns="http://www.w3.org/2000/svg">
<path d="M9 11.2875L16.0004 16.0525C16.6258 16.4782 17 17.1856 17 17.9421V21.0018C17 21.3174 16.7442 21.5732 16.4286 21.5732H1.57143C1.25584 21.5732 1 21.3174 1 21.0018V17.9421C1 17.1856 1.37424 16.4782 1.99957 16.0525L9 11.2875ZM9 11.2875L16.0004 6.52253C16.6258 6.09689 17 5.38944 17 4.633V1.57324C17 1.25765 16.7442 1.00182 16.4286 1.00182H1.57143C1.25584 1.00182 1 1.25765 1 1.57324V4.633C1 5.38944 1.37424 6.09689 1.99957 6.52253L9 11.2875ZM9 11.2875L9 18.1447M12.4286 21.4018V20.6671C12.4286 20.5155 12.3684 20.3702 12.2612 20.263L9.6465 17.6483C9.28945 17.2913 8.71055 17.2913 8.3535 17.6483L5.7388 20.263C5.63163 20.3702 5.57143 20.5155 5.57143 20.6671V21.4018C5.57143 21.4965 5.64818 21.5732 5.74286 21.5732H12.2571C12.3518 21.5732 12.4286 21.4965 12.4286 21.4018ZM14.7143 6.7161L9 10.1447L3.28571 6.7161H14.7143Z" stroke="#3F5701" stroke-width="2" stroke-linecap="round" stroke-linejoin="round"/>
</svg>
