<svg width="32" height="34" viewBox="0 0 32 34" fill="none" xmlns="http://www.w3.org/2000/svg">
<path d="M15.1691 24.45L25.4659 19.7119C25.7205 19.5948 25.8478 19.5362 25.878 19.4224C25.9081 19.3085 25.8266 19.1946 25.6634 18.9667L22.8197 14.9937L14.5975 23.6515C13.9058 24.3798 13.5599 24.744 13.6801 24.9119C13.8003 25.0798 14.2566 24.8699 15.1691 24.45Z" fill="#222222"/>
<path d="M22.8197 14.9937L25.6634 18.9667C25.8266 19.1946 25.9081 19.3085 25.878 19.4224C25.8478 19.5362 25.7205 19.5948 25.4659 19.7119L15.1691 24.45C14.2566 24.8699 13.8003 25.0798 13.6801 24.9119C13.5599 24.744 13.9058 24.3798 14.5975 23.6515L22.8197 14.9937ZM22.8197 14.9937L20.8222 12.203L20.4227 11.6448" stroke="#222222" stroke-width="2" stroke-linecap="round"/>
<line y1="-1" x2="13.4234" y2="-1" transform="matrix(-0.565343 -0.824856 0.823284 -0.56763 21.1488 11.62)" stroke="black" stroke-width="2"/>
<path d="M5.63134 20.9723L6.90002 22.7589C6.93426 22.8072 6.95138 22.8313 6.97798 22.8304C7.00457 22.8294 7.02343 22.8041 7.06113 22.7534L8.45822 20.8756C8.63593 20.6367 8.72479 20.5173 8.7293 20.3885C8.73382 20.2597 8.65312 20.1461 8.49174 19.9188L7.14638 18.0243L5.66486 20.0156C5.48714 20.2545 5.39828 20.3739 5.39377 20.5027C5.38926 20.6314 5.46995 20.7451 5.63134 20.9723Z" fill="#CDE58F"/>
<path d="M8.02489 22.5927L6.70202 24.5039C6.66632 24.5555 6.64847 24.5812 6.6611 24.5998C6.67373 24.6183 6.70867 24.6176 6.77855 24.6162L9.36758 24.5635C9.69692 24.5568 9.8616 24.5534 9.99906 24.4844C10.1365 24.4154 10.2207 24.2939 10.3889 24.0507L11.7918 22.024L9.04625 22.0799C8.71691 22.0866 8.55223 22.09 8.41477 22.159C8.27731 22.228 8.19317 22.3496 8.02489 22.5927Z" fill="#CDE58F"/>
<path d="M5.94523 22.6639L7.13718 24.489C7.16936 24.5382 7.18544 24.5629 7.17148 24.5823C7.15751 24.6018 7.12254 24.6034 7.0526 24.6068L4.46104 24.7314C4.13138 24.7472 3.96655 24.7552 3.8336 24.6954C3.70064 24.6357 3.62483 24.5196 3.47321 24.2874L2.20921 22.352L4.9574 22.2199C5.28706 22.204 5.45189 22.1961 5.58484 22.2558C5.71779 22.3156 5.79361 22.4317 5.94523 22.6639Z" fill="#CDE58F"/>
<path d="M7.14638 18.0243L5.66486 20.0156C5.48714 20.2545 5.39828 20.3739 5.39377 20.5027C5.38926 20.6314 5.46995 20.7451 5.63134 20.9723L6.90002 22.7589C6.93426 22.8072 6.95138 22.8313 6.97798 22.8304C7.00457 22.8294 7.02343 22.8041 7.06113 22.7534L8.45822 20.8756C8.63593 20.6367 8.72479 20.5173 8.7293 20.3885C8.73382 20.2597 8.65312 20.1461 8.49174 19.9188L7.14638 18.0243ZM7.14638 18.0243L7.18031 17.0557M11.7918 22.024L9.04625 22.0799C8.71691 22.0866 8.55223 22.09 8.41477 22.159C8.27731 22.228 8.19317 22.3496 8.02489 22.5927L6.70202 24.5039C6.66632 24.5555 6.64847 24.5812 6.6611 24.5998C6.67373 24.6183 6.70867 24.6176 6.77855 24.6162L9.36758 24.5635C9.69692 24.5568 9.8616 24.5534 9.99906 24.4844C10.1365 24.4154 10.2207 24.2939 10.3889 24.0507L11.7918 22.024ZM11.7918 22.024L12.8257 21.505M2.20921 22.352L4.9574 22.2199C5.28706 22.204 5.45189 22.1961 5.58484 22.2558C5.71779 22.3156 5.79361 22.4317 5.94523 22.6639L7.13718 24.489C7.16936 24.5382 7.18544 24.5629 7.17148 24.5823C7.15751 24.6018 7.12254 24.6035 7.0526 24.6068L4.46104 24.7314C4.13138 24.7472 3.96655 24.7552 3.8336 24.6954C3.70064 24.6357 3.62483 24.5196 3.47321 24.2874L2.20921 22.352ZM2.20921 22.352L1.20921 21.9025M6.95973 23.3512L6.83247 26.9832" stroke="#3F5701" stroke-width="3"/>
</svg>
